<svg xmlns="http://www.w3.org/2000/svg" viewBox="0 0 1500 500" width="1500" height="500" role="img" aria-label="w6w">
  <rect width="1500" height="500" fill="#0F1115"/>
  <g transform="translate(520,127.75352112676056) scale(1.619718309859155)">
  <rect width="96" height="96" rx="22" fill="#3355E6"/>
  <g transform="translate(48,48) scale(1.12) translate(-48,-48) translate(-30,23)" fill="none" stroke="#FFFFFF" stroke-width="9" stroke-linecap="round" stroke-linejoin="round"><path d="M91 2 C 76 6, 62 16, 62 32"/><circle cx="78" cy="32" r="16"/></g>
  <g transform="translate(128,24)" fill="none" stroke="#FFFFFF" stroke-width="8" stroke-linecap="round" stroke-linejoin="round"><path d="M0 0 L11.5 48 L23 10 L34.5 48 L46 0"/><path d="M91 2 C 76 6, 62 16, 62 32"/><circle cx="78" cy="32" r="16"/><path d="M106 0 L117.5 48 L129 10 L140.5 48 L152 0"/></g>
  </g>
  <text x="750" y="362" text-anchor="middle" fill="#9AA3B2" font-family="Inter, 'Liberation Sans', Arial, Helvetica, sans-serif" font-size="48" font-weight="500" letter-spacing="0.01em">Central API management</text>
  <!-- x: safe area 1200x360 centred; content 460x244 -->
</svg>
